name processed_emg_signals						
nRows=103						
nColumns=7						
 						
endheader						
time	RGLTMED	RRF	RADDLONG	RST	RTA	RGM
0	0.010568746	0.082520245	0.018758453	0.013560487	0.022761207	0.001648183
0.001	0.011433633	0.076098225	0.017413366	0.014296302	0.025277823	0.001979625
0.002	0.012313911	0.069671824	0.016074249	0.015028924	0.027779795	0.005592575
0.003	0.013209312	0.063243779	0.014741752	0.015757693	0.030265676	0.009188422
0.004	0.014119549	0.0568168	0.013416507	0.016481957	0.032734053	0.012764936
0.005	0.015044324	0.050393569	0.01209913	0.017201062	0.035183554	0.016319908
0.006	0.015983326	0.04397674	0.010790219	0.017914364	0.03761285	0.019851156
0.007	0.016936231	0.03756893	0.009490356	0.018621224	0.040020655	0.023356521
0.008	0.0179027	0.031172719	0.008200101	0.019321008	0.042405735	0.026833874
0.009	0.018882386	0.024790648	0.006919996	0.020013094	0.044766905	0.030281122
0.01	0.019874925	0.018425217	0.005650562	0.020696868	0.047103037	0.033696203
0.011	0.020879946	0.012078877	0.004392297	0.021371727	0.049413058	0.037077096
0.012	0.021897064	0.005754034	0.003145677	0.022037083	0.051695958	0.04042182
0.013	0.022925883	0.000546955	0.001911157	0.022692356	0.053950785	0.043728437
0.014	0.023965999	0.006821788	0.000689165	0.023336984	0.056176658	0.046995055
0.015	0.025016995	0.013068214	0.000519891	0.023970418	0.058372759	0.05021983
0.016	0.026078446	0.01928404	0.001715631	0.024592127	0.060538343	0.053400969
0.017	0.027149917	0.025467128	0.002897697	0.025201595	0.062672735	0.056536733
0.018	0.028230966	0.031615401	0.004065758	0.025798326	0.064775336	0.059625434
0.019	0.02932114	0.037726842	0.005219509	0.026381838	0.066845623	0.062665445
0.02	0.030419981	0.043799494	0.006358669	0.026951675	0.068883148	0.065655194
0.021	0.03152702	0.049831464	0.007482985	0.027507395	0.070887546	0.068593172
0.022	0.032641784	0.055820922	0.008592226	0.028048579	0.072858533	0.07147793
0.023	0.033763793	0.061766101	0.009686192	0.028574831	0.074795905	0.074308084
0.024	0.034892559	0.067665301	0.010764705	0.029085775	0.076699542	0.077082315
0.025	0.036027592	0.073516885	0.011827615	0.029581058	0.078569411	0.079799368
0.026	0.037168392	0.079319283	0.012874797	0.030060348	0.080405562	0.082458056
0.027	0.03831446	0.085070989	0.013906152	0.030523341	0.082208131	0.085057262
0.028	0.039465287	0.090770566	0.014921606	0.030969752	0.083977341	0.087595934
0.029	0.040620366	0.096416639	0.015921108	0.031399322	0.085713502	0.090073094
0.03	0.041779183	0.102007901	0.016904636	0.031811817	0.08741701	0.092487832
0.031	0.042941223	0.107543109	0.017872188	0.032207028	0.089088349	0.094839308
0.032	0.044105968	0.113021087	0.018823789	0.032584768	0.090728087	0.097126754
0.033	0.045272898	0.11844072	0.019759484	0.032944877	0.092336879	0.099349472
0.034	0.046441494	0.123800961	0.020679344	0.033287221	0.093915465	0.101506838
0.035	0.047611234	0.129100822	0.02158346	0.033611688	0.095464668	0.103598297
0.036	0.048781597	0.134339379	0.022471945	0.033918194	0.096985396	0.105623364
0.037	0.049952061	0.139515772	0.023344935	0.034206678	0.098478636	0.107581626
0.038	0.051122106	0.144629197	0.024202583	0.034477104	0.099945456	0.109472741
0.039	0.052291212	0.149678913	0.025045065	0.034729462	0.101387001	0.111296436
0.04	0.053458862	0.154664236	0.025872572	0.034963764	0.102804493	0.113052504
0.041	0.05462454	0.159584539	0.026685316	0.035180049	0.104199227	0.114740811
0.042	0.055787732	0.164439253	0.027483525	0.035378378	0.105572571	0.116361287
0.043	0.056947929	0.169227861	0.028267445	0.035558834	0.106925961	0.11791393
0.044	0.058104623	0.173949901	0.029037335	0.035721527	0.108260898	0.119398801
0.045	0.059257312	0.178604963	0.029793471	0.035866585	0.109578949	0.120816028
0.046	0.060405497	0.183192687	0.030536142	0.035994162	0.110881737	0.122165798
0.047	0.061548683	0.187712764	0.031265651	0.036104431	0.112170947	0.123448362
0.048	0.062686381	0.192164929	0.03198231	0.036197588	0.113448315	0.124664031
0.049	0.063818108	0.196548968	0.032686446	0.036273847	0.114715625	0.125813171
0.05	0.064943385	0.200864707	0.033378394	0.036333444	0.115974711	0.12689621
0.051	0.066061741	0.205112017	0.0340585	0.036376634	0.117227447	0.127913626
0.052	0.067172709	0.209290812	0.034727116	0.036403689	0.118475746	0.128865955
0.053	0.068275832	0.213401043	0.035384604	0.036414901	0.119721556	0.129753783
0.054	0.069370658	0.2174427	0.036031331	0.036410579	0.120966854	0.130577745
0.055	0.070456742	0.221415812	0.03666767	0.036391047	0.122213643	0.131338528
0.056	0.071533648	0.225320441	0.037293999	0.036356647	0.123463947	0.132036863
0.057	0.072600948	0.229156681	0.037910699	0.036307734	0.124719807	0.132673528
0.058	0.07365822	0.232924661	0.038518155	0.036244679	0.125983277	0.133249344
0.059	0.074705052	0.236624539	0.039116753	0.036167866	0.127256415	0.133765174
0.06	0.07574104	0.240256501	0.039706881	0.036077693	0.128541285	0.13422192
0.061	0.076765791	0.243820762	0.040288926	0.035974568	0.129839947	0.134620524
0.062	0.077778916	0.24731756	0.040863274	0.035858914	0.131154455	0.134961964
0.063	0.07878004	0.250747161	0.041430312	0.035731161	0.132486848	0.135247253
0.064	0.079768794	0.254109852	0.04199042	0.035591751	0.133839151	0.13547744
0.065	0.080744819	0.25740594	0.04254398	0.035441134	0.135213365	0.135653601
0.066	0.081707765	0.260635756	0.043091365	0.03527977	0.136611465	0.135776846
0.067	0.082657291	0.263799646	0.043632947	0.035108125	0.138035392	0.135848314
0.068	0.083593066	0.266897977	0.044169089	0.034926673	0.139487051	0.135869168
0.069	0.084514767	0.26993113	0.044700149	0.034735892	0.140968304	0.135840601
0.07	0.085422082	0.272899504	0.045226479	0.034536269	0.142480968	0.135763825
0.071	0.086314704	0.275803509	0.045748421	0.034328292	0.144026806	0.13564008
0.072	0.08719234	0.278643571	0.046266309	0.034112454	0.145607524	0.135470625
0.073	0.088054702	0.281420126	0.046780467	0.033889252	0.147224769	0.135256738
0.074	0.088901512	0.284133623	0.047291211	0.033659184	0.148880118	0.134999718
0.075	0.0897325	0.286784522	0.047798845	0.03342275	0.15057508	0.134700879
0.076	0.090547404	0.289373289	0.048303661	0.033180451	0.152311089	0.134361553
0.077	0.091345971	0.291900401	0.048805941	0.032932788	0.154089497	0.133983087
0.078	0.092127953	0.294366343	0.049305955	0.032680261	0.155911576	0.133566839
0.079	0.092893113	0.296771606	0.049803957	0.03242337	0.157778507	0.133114183
0.08	0.093641218	0.299116687	0.050300192	0.03216261	0.159691381	0.132626501
0.081	0.094372044	0.301402089	0.050794889	0.031898478	0.161651193	0.132105188
0.082	0.095085373	0.30362832	0.051288264	0.031631463	0.16365884	0.131551645
0.083	0.095780994	0.305795892	0.051780517	0.031362053	0.165715116	0.130967284
0.084	0.0964587	0.307905319	0.052271836	0.031090729	0.167820709	0.130353522
0.085	0.097118291	0.309957119	0.052762392	0.030817969	0.169976199	0.12971178
0.086	0.097759575	0.311951812	0.05325234	0.030544244	0.172182056	0.129043487
0.087	0.098382361	0.313889918	0.053741823	0.030270019	0.174438634	0.128350072
0.088	0.098986467	0.315771961	0.054230965	0.02999575	0.176746173	0.127632969
0.089	0.099571713	0.317598461	0.054719876	0.029721888	0.179104792	0.126893611
0.09	0.100137927	0.319369939	0.055208648	0.029448874	0.181514492	0.126133433
0.091	0.100684937	0.321086917	0.05569736	0.029177142	0.18397515	0.125353866
0.092	0.10121258	0.32274991	0.056186073	0.028907114	0.186486521	0.124556342
0.093	0.101720696	0.324359435	0.056674831	0.028639205	0.189048234	0.123742286
0.094	0.102209126	0.325916002	0.057163663	0.028373819	0.191659793	0.122913122
0.095	0.10267772	0.327420119	0.057652583	0.028111347	0.194320575	0.122070265
0.096	0.103126329	0.328872287	0.058141587	0.027852173	0.197029831	0.121215126
0.097	0.103554809	0.330273002	0.058630656	0.027596666	0.199786685	0.120349105
0.098	0.10396302	0.331622754	0.059119753	0.027345185	0.20259013	0.119473594
0.099	0.104350826	0.332922025	0.059608828	0.027098077	0.205439038	0.118589974
0.1	0.104718095	0.334171287	0.060097815	0.026855674	0.20833215	0.117699615
0.101	0.1050647	0.335371007	0.060586631	0.026618296	0.211268083	0.116803874
0.102	0.105390518	0.336521637	0.061075178	0.026386253	0.21424533	0.115904091
